<?xml version="1.0" standalone="no"?>
<!DOCTYPE svg PUBLIC "-//W3C//DTD SVG 20010904//EN"
 "http://www.w3.org/TR/2001/REC-SVG-20010904/DTD/svg10.dtd">
<svg version="1.0" xmlns="http://www.w3.org/2000/svg"
 width="281.000000pt" height="271.000000pt" viewBox="0 0 281.000000 271.000000"
 preserveAspectRatio="xMidYMid meet">

<g transform="translate(0.000000,271.000000) scale(0.100000,-0.100000)"
fill="#000000" stroke="none">
<path d="M2694 2313 c3 -120 11 -463 16 -763 11 -636 18 -932 26 -1195 6 -223
3 -235 -88 -278 -52 -25 -55 -26 -173 -17 -66 6 -255 17 -420 25 -801 42
-1057 58 -1648 106 -98 8 -142 8 -149 1 -15 -15 16 -93 43 -110 13 -9 78 -17
163 -23 77 -5 170 -14 206 -19 35 -5 66 -7 69 -5 2 3 -2 5 -10 6 -8 0 -6 4 6
9 19 8 19 9 -2 9 -12 1 -25 5 -28 11 -3 5 -16 10 -28 10 -12 0 -42 8 -67 17
l-45 18 45 7 c90 13 360 7 720 -17 41 -3 122 -8 180 -11 58 -4 110 -10 115
-14 6 -4 62 -10 125 -14 63 -4 133 -8 155 -11 22 -2 94 -9 160 -15 66 -6 158
-16 205 -23 119 -15 441 -18 459 -3 11 8 15 8 18 -1 3 -7 16 -13 30 -13 l25 0
-5 702 c-2 387 -7 789 -10 893 -4 105 -7 312 -8 460 -2 176 -7 286 -15 315
-14 54 -61 160 -70 160 -4 0 -4 -98 0 -217z"/>
<path d="M1295 2187 c126 -43 198 -86 288 -174 61 -59 117 -136 152 -208 11
-22 23 -42 26 -45 3 -3 11 -15 18 -27 6 -13 18 -23 26 -23 19 0 26 -26 29
-122 3 -62 -1 -97 -15 -138 -10 -30 -19 -62 -19 -72 0 -10 -4 -26 -9 -36 -5
-9 -26 -61 -47 -115 -20 -54 -43 -105 -50 -112 -8 -7 -14 -18 -14 -24 0 -5 -9
-16 -20 -24 -16 -11 -20 -24 -19 -55 3 -40 -9 -66 -50 -109 -12 -12 -21 -26
-21 -31 0 -5 -16 -23 -35 -41 -20 -18 -33 -36 -30 -40 3 -5 -2 -11 -10 -15
-20 -7 -19 -4 9 52 13 26 31 73 40 104 9 32 26 75 39 95 20 35 22 50 22 210 0
133 -3 175 -14 185 -11 11 -12 2 -7 -57 3 -41 2 -76 -4 -85 -7 -11 -10 0 -10
38 0 168 -101 438 -220 587 -149 187 -395 282 -595 230 -168 -44 -363 -222
-431 -393 -10 -26 -20 -39 -24 -32 -10 16 -38 -64 -61 -172 -47 -229 -13 -491
91 -700 39 -78 144 -228 160 -228 22 0 17 19 -11 46 -17 16 -40 43 -52 59 -11
17 12 -1 51 -40 129 -125 259 -187 426 -205 l81 -9 -100 4 c-55 3 -115 9 -133
14 -20 6 -30 6 -27 0 4 -5 0 -9 -7 -9 -28 -1 40 -29 100 -40 109 -22 269 -1
302 39 3 3 17 12 32 20 36 19 30 24 -10 10 -17 -6 -37 -9 -44 -6 -7 3 8 11 34
18 26 7 44 17 41 23 -4 5 1 7 11 3 9 -4 15 -3 12 2 -3 4 16 22 42 39 27 17 73
57 102 88 30 32 56 57 58 56 2 -2 12 7 23 20 17 21 18 21 12 3 -3 -11 -9 -24
-12 -30 -3 -5 -4 -20 -2 -33 1 -13 -4 -25 -13 -28 -9 -3 -16 -12 -16 -19 0
-17 -115 -122 -164 -149 -98 -54 -99 -55 -30 -44 79 12 92 4 19 -12 -84 -18
-87 -27 -12 -35 100 -11 185 8 297 65 124 64 205 131 275 227 131 179 195 383
195 618 0 115 -2 129 -36 227 -20 56 -45 121 -55 142 -10 22 -19 45 -19 51 0
18 -67 153 -101 201 -106 154 -291 266 -462 279 l-72 6 70 -24z m-332 -446
c130 -61 226 -198 249 -358 10 -71 10 -95 -6 -175 -9 -50 -26 -104 -37 -119
-10 -15 -19 -32 -19 -37 0 -6 -6 -17 -13 -24 -6 -7 -23 -30 -37 -50 -14 -21
-28 -38 -32 -38 -4 0 -15 14 -24 31 -15 30 -15 33 5 53 12 11 21 16 21 10 0
-5 9 -10 20 -11 11 -1 20 3 20 8 0 6 -4 7 -10 4 -5 -3 -10 1 -10 10 0 10 6 15
13 12 8 -3 13 10 14 44 1 26 6 57 12 68 21 38 24 161 7 235 -21 86 -69 176
-110 204 -18 12 -43 32 -55 44 -20 18 -34 21 -85 19 -88 -3 -150 -26 -203 -76
l-45 -43 -25 26 -25 27 24 -34 c12 -18 27 -39 33 -47 5 -7 6 -16 2 -20 -8 -8
-77 54 -77 69 0 12 58 85 90 115 14 12 43 32 65 44 86 46 153 48 238 9z m-373
-306 c-23 -86 -24 -141 -5 -223 18 -75 44 -129 86 -177 29 -33 30 -38 19 -65
-7 -17 -16 -30 -21 -30 -13 0 -75 82 -103 137 -34 68 -56 162 -56 242 0 62 22
176 42 214 8 16 10 15 32 -5 l24 -23 -18 -70z m386 61 c4 -9 1 -22 -5 -30 -15
-18 -51 -9 -52 13 0 13 -2 14 -6 1 -8 -21 -24 -30 -55 -30 -20 0 -28 5 -29 18
-1 16 -2 16 -6 0 -3 -14 -15 -18 -54 -18 -45 0 -49 2 -49 23 0 20 6 23 42 26
23 1 43 3 45 4 1 2 38 4 83 6 65 2 81 -1 86 -13z m-15 -87 c17 -17 20 -29 16
-60 -3 -22 0 -52 6 -68 22 -58 -31 -113 -88 -91 -14 5 -30 20 -35 32 -6 17 -9
19 -9 6 -1 -26 -46 -51 -77 -44 -49 13 -73 140 -38 207 13 26 20 30 52 27 27
-2 40 -9 49 -28 7 -14 13 -19 13 -12 0 21 39 52 65 52 14 0 35 -10 46 -21z
m616 -171 c-3 -8 -6 -5 -6 6 -1 11 2 17 5 13 3 -3 4 -12 1 -19z m-1319 -99
c-3 -20 -5 -19 -9 9 -3 20 -2 29 4 23 5 -5 7 -19 5 -32z m1299 -71 c-3 -7 -5
-2 -5 12 0 14 2 19 5 13 2 -7 2 -19 0 -25z m-10 -50 c-3 -8 -6 -5 -6 6 -1 11
2 17 5 13 3 -3 4 -12 1 -19z m-1237 -52 c-1 -21 -1 -21 -15 -2 -8 11 -15 29
-15 40 1 21 1 21 15 2 8 -11 15 -29 15 -40z m1151 -243 c-12 -20 -14 -14 -5
12 4 9 9 14 11 11 3 -2 0 -13 -6 -23z"/>
<path d="M1080 989 c0 -5 5 -7 10 -4 6 3 10 8 10 11 0 2 -4 4 -10 4 -5 0 -10
-5 -10 -11z"/>
<path d="M772 1368 c-18 -18 -14 -27 8 -21 21 6 26 18 12 27 -5 3 -14 0 -20
-6z"/>
<path d="M896 1365 c-3 -9 -16 -16 -28 -15 -13 1 -31 2 -40 1 -16 -1 -16 -3 2
-21 11 -11 20 -27 20 -35 0 -9 8 -18 18 -22 9 -3 24 -14 32 -24 10 -12 20 -16
29 -10 18 12 7 41 -19 48 -27 7 -26 43 0 50 12 3 20 12 18 21 -4 22 -24 26
-32 7z"/>
<path d="M772 1268 c3 -35 22 -48 32 -22 9 24 -2 54 -20 54 -11 0 -14 -9 -12
-32z"/>
<path d="M653 2140 c-43 -21 -90 -52 -103 -67 l-25 -28 27 24 c16 13 32 20 39
16 7 -5 10 -4 6 2 -6 10 107 73 131 73 6 0 14 5 17 10 11 18 -11 11 -92 -30z"/>
<path d="M368 1867 c-46 -79 -60 -107 -54 -107 6 0 97 162 93 166 -2 2 -19
-25 -39 -59z"/>
<path d="M506 613 c-12 -12 -6 -25 10 -19 8 3 13 2 10 -3 -10 -15 136 -121
166 -121 7 0 -5 10 -27 21 -45 24 -86 54 -81 60 5 7 -71 69 -78 62z"/>
</g>
</svg>
